<svg xmlns="http://www.w3.org/2000/svg" width="680" height="560" viewBox="0 0 680 560" role="img" aria-label="Уютная зона груминг-студии">
  <rect width="680" height="560" fill="#F8FBF9"/>
  <rect x="66" y="80" width="548" height="342" rx="34" fill="#FFFFFF" stroke="#E3ECE8" stroke-width="3"/>
  <rect x="110" y="126" width="190" height="210" rx="28" fill="#EAF7F2"/>
  <rect x="338" y="126" width="230" height="210" rx="28" fill="#FFE8E2"/>
  <path d="M142 300c19-59 62-90 128-94 55-3 89 21 100 75 5 27-16 49-44 49H170c-23 0-36-8-28-30Z" fill="#5DBFA6"/>
  <circle cx="214" cy="193" r="45" fill="#FFFFFF"/>
  <path d="M390 306c14-70 58-105 132-105 61 0 101 35 111 105 4 26-17 48-43 48H425c-24 0-40-24-35-48Z" fill="#FFFFFF"/>
  <circle cx="478" cy="223" r="13" fill="#26322F"/>
  <circle cx="546" cy="223" r="13" fill="#26322F"/>
  <path d="M500 250c18 15 38 15 56 0" stroke="#26322F" stroke-width="9" stroke-linecap="round" fill="none"/>
  <circle cx="560" cy="92" r="42" fill="#5DBFA6" opacity="0.35"/>
  <circle cx="115" cy="430" r="34" fill="#FF725E" opacity="0.18"/>
  <text x="340" y="486" text-anchor="middle" font-family="Arial, sans-serif" font-size="24" font-weight="700" fill="#254D43">Уютная студия и бережный уход</text>
</svg>
