<svg xmlns="http://www.w3.org/2000/svg" width="720" height="640" viewBox="0 0 720 640" role="img" aria-label="Фото грумера с питомцами">
  <rect width="720" height="640" fill="#EAF7F2"/>
  <circle cx="570" cy="90" r="78" fill="#FFE8E2"/>
  <circle cx="126" cy="132" r="54" fill="#FFFFFF" opacity="0.9"/>
  <path d="M110 512c48-128 142-196 282-205 120-8 190 43 210 153 10 54-34 100-89 100H172c-43 0-77-8-62-48Z" fill="#FFFFFF"/>
  <path d="M265 292c-26-42-17-96 21-126 38-31 93-24 122 15 34 46 22 105-26 135l-6 63h-80l-4-64c-11-5-20-12-27-23Z" fill="#5DBFA6"/>
  <circle cx="330" cy="136" r="54" fill="#FFE8E2"/>
  <path d="M285 151c31 20 71 19 101-4 1 43-21 78-56 78-31 0-49-29-45-74Z" fill="#254D43" opacity="0.13"/>
  <path d="M210 448c8-63 46-101 112-101 68 0 106 38 114 101H210Z" fill="#254D43"/>
  <path d="M456 460c-16-74 15-128 80-135 62-7 111 38 112 102 1 65-45 107-107 101-42-4-73-28-85-68Z" fill="#FF725E"/>
  <circle cx="548" cy="387" r="18" fill="#26322F"/>
  <circle cx="613" cy="399" r="14" fill="#26322F"/>
  <path d="M578 426c18 16 37 16 56 0" stroke="#26322F" stroke-width="10" stroke-linecap="round" fill="none"/>
  <path d="M150 472c-4-66 31-116 91-126 56-9 106 26 122 83 18 63-23 122-88 127-61 5-121-24-125-84Z" fill="#FFFFFF"/>
  <circle cx="216" cy="420" r="13" fill="#26322F"/>
  <circle cx="292" cy="420" r="13" fill="#26322F"/>
  <path d="M241 449c22 18 45 18 68 0" stroke="#26322F" stroke-width="10" stroke-linecap="round" fill="none"/>
  <path d="M155 351l44 36m171-36-44 36" stroke="#FFFFFF" stroke-width="24" stroke-linecap="round"/>
  <text x="360" y="594" text-anchor="middle" font-family="Arial, sans-serif" font-size="22" font-weight="700" fill="#254D43">Фото грумера с питомцами</text>
</svg>
